<?xml version="1.0" encoding="UTF-8"?>
<!-- Generated by Pixelmator Pro 3.3.2 -->
<svg width="732" height="103" viewBox="0 0 732 103" xmlns="http://www.w3.org/2000/svg" xmlns:xlink="http://www.w3.org/1999/xlink">
    <g id="Layer-1">
        <g id="W">
            <g id="Group">
                <path id="Path" fill="#f4beef" fill-rule="evenodd" stroke="none" d="M 84.100006 18.700012 C 80.600006 4.299988 61.600006 -1.400024 52.100006 11.099976 C 46.399994 7 39.899994 6.400024 33.700012 10.700012 C 26.299988 2 11.700012 3.599976 6 13.200012 C -1.200012 25.200012 1.700012 40 2.100006 53.200012 C 3.200012 66.5 3.899994 83.400024 12.799988 94.200012 C 20.799988 103.200012 33.5 103.299988 41.700012 92.5 C 49.100006 102.400024 61.100006 105.599976 70.899994 93.799988 C 76.200012 86.599976 78.700012 76.299988 80.600006 67.5 C 83.5 51.099976 88.200012 35.200012 84.100006 18.700012 Z"/>
                <path id="Compound-Path" fill="#000000" fill-rule="evenodd" stroke="none" d="M 56.899994 102.599976 C 56.833323 102.599976 56.733327 102.599976 56.600006 102.599976 C 51.200012 102.400024 45.899994 99.5 41.700012 94.400024 C 37.700012 99.099976 32.600006 101.700012 27.200012 102 C 21.600006 102.200012 16.100006 99.700012 11.899994 95 C 3.299988 84.599976 2.100006 68.799988 1.100006 56.099976 L 0.899994 53.299988 C 0.799988 50.599976 0.600006 48.099976 0.5 45.299988 C -0.200012 34.099976 -1 22.5 4.899994 12.599976 C 7.899994 7.599976 13.299988 4.400024 19.299988 3.799988 C 25 3.400024 30.200012 5.299988 33.899994 9.099976 C 39.700012 5.5 46 5.599976 51.899994 9.400024 C 56.299988 4.200012 62.899994 2 69.700012 3.400024 C 77.299988 5 83.399994 10.900024 85.299988 18.400024 C 88.700012 32.200012 86 45.799988 83.5 58.900024 C 82.899994 61.799988 82.299988 64.700012 81.799988 67.700012 C 79.700012 77.299988 77.200012 87.299988 71.799988 94.5 C 67.399994 99.799988 62.299988 102.599976 56.899994 102.599976 Z M 41.700012 91.299988 C 41.700012 91.299988 41.700012 91.299988 41.700012 91.299988 C 42 91.299988 42.399994 91.5 42.600006 91.799988 C 46.5 97 51.600006 100 56.600006 100.200012 C 61.399994 100.299988 66 97.799988 70 93 C 75 86.200012 77.399994 76.5 79.5 67.200012 C 80 64.299988 80.600006 61.299988 81.100006 58.400024 C 83.799988 45 86.200012 32.200012 82.899994 19 C 82.899994 19 82.899994 19 82.899994 19 C 81.299988 12.400024 75.899994 7.200012 69.200012 5.799988 C 63 4.5 56.899994 6.700012 53.100006 11.799988 C 52.700012 12.299988 52 12.400024 51.399994 12 C 47.5 9.200012 41.299988 6.900024 34.299988 11.700012 C 33.799988 12 33.100006 11.900024 32.700012 11.5 C 29.600006 7.700012 24.700012 5.799988 19.5 6.200012 C 14.200012 6.700012 9.600006 9.5 7 13.799988 C 1.5 23.099976 2.200012 34.299988 2.899994 45.200012 C 3 47.799988 3.200012 50.5 3.299988 53.099976 L 3.5 55.900024 C 4.5 68.900024 5.700012 83.599976 13.700012 93.400024 C 17.399994 97.599976 22.200012 99.799988 27.200012 99.599976 C 32.200012 99.400024 37.100006 96.599976 40.700012 91.799988 C 40.899994 91.5 41.299988 91.299988 41.700012 91.299988 Z"/>
            </g>
            <path id="path1" fill="#000000" fill-rule="evenodd" stroke="none" d="M 45.899994 54.700012 C 45.299988 54.700012 44.799988 54.200012 44.700012 53.599976 C 43.200012 42 41.299988 26 51.100006 10.400024 C 51.5 9.900024 52.200012 9.700012 52.799988 10 C 53.299988 10.400024 53.5 11.099976 53.100006 11.700012 C 43.700012 26.5 45.700012 42 47.100006 53.299988 C 47.200012 54 46.700012 54.599976 46 54.700012 C 46 54.700012 45.966665 54.700012 45.899994 54.700012 Z"/>
            <path id="path2" fill="#000000" fill-rule="evenodd" stroke="none" d="M 23.600006 54.700012 C 23 54.700012 22.5 54.200012 22.399994 53.599976 C 19.5 31.400024 22.700012 18.299988 32.899994 9.799988 C 33.399994 9.299988 34.200012 9.400024 34.600006 9.900024 C 35 10.400024 34.899994 11.200012 34.399994 11.599976 C 24.899994 19.599976 22 32 24.799988 53.299988 C 24.899994 54 24.399994 54.599976 23.799988 54.700012 C 23.733337 54.700012 23.666677 54.700012 23.600006 54.700012 Z"/>
            <path id="path3" fill="#000000" fill-rule="evenodd" stroke="none" d="M 41.700012 93.700012 C 41.299988 93.700012 41 93.5 40.700012 93.200012 C 38.100006 89.900024 35.299988 78.599976 35.299988 67.099976 C 35.299988 66.400024 35.799988 65.900024 36.5 65.900024 C 37.100006 65.900024 37.700012 66.400024 37.700012 67.099976 C 37.700012 78.900024 40.600006 89.200012 42.600006 91.799988 C 43 92.299988 42.899994 93 42.399994 93.400024 C 42.200002 93.600016 41.966675 93.700012 41.700012 93.700012 Z"/>
            <path id="path4" fill="#ffffff" fill-rule="evenodd" stroke="none" d="M 9.700012 19.299988 C 9.366679 19.299988 9.066671 19.233317 8.799988 19.099976 C 8 18.700012 7.700012 17.599976 8.100006 16.700012 C 10.600006 12.200012 15.600006 9.200012 20.799988 9 C 21.700012 8.900024 22.600006 9.700012 22.600006 10.700012 C 22.600006 11.599976 21.899994 12.5 20.899994 12.5 C 16.899994 12.599976 13.100006 15 11.200012 18.400024 C 10.899994 19 10.299988 19.299988 9.700012 19.299988 Z"/>
            <path id="path5" fill="#ffffff" fill-rule="evenodd" stroke="none" d="M 35.399994 18.5 C 35 18.5 34.600006 18.400024 34.299988 18.099976 C 33.600006 17.5 33.5 16.400024 34.100006 15.599976 C 35.700012 13.599976 38 12.200012 40.600006 11.5 C 41.5 11.299988 42.5 11.900024 42.700012 12.799988 C 42.899994 13.799988 42.399994 14.700012 41.399994 15 C 39.600006 15.400024 38 16.400024 36.799988 17.900024 C 36.399994 18.299988 35.899994 18.5 35.399994 18.5 Z"/>
            <path id="path6" fill="#ffffff" fill-rule="evenodd" stroke="none" d="M 57.299988 15.799988 C 56.900004 15.799988 56.566671 15.733317 56.299988 15.599976 C 55.5 15 55.200012 13.900024 55.799988 13.099976 C 57.399994 10.599976 60 8.900024 62.899994 8.400024 C 63.899994 8.200012 64.799988 8.799988 65 9.799988 C 65.200012 10.700012 64.5 11.700012 63.600006 11.799988 C 61.600006 12.200012 59.799988 13.400024 58.700012 15 C 58.399994 15.599976 57.799988 15.799988 57.299988 15.799988 Z"/>
        </g>
        <g id="B">
            <g id="g1">
                <path id="path7" fill="#f4beef" fill-rule="evenodd" stroke="none" d="M 207.200012 49.799988 C 222.900024 24.599976 203.299988 -3.099976 174.099976 3.099976 C 164.200012 5.700012 150.200012 9.299988 147.200012 20.599976 C 144.299988 35.299988 145.400024 51.200012 145.299988 66.200012 C 145.700012 88 147.200012 100.599976 171.599976 100.599976 C 218.799988 100.599976 228.599976 63.599976 207.200012 49.799988 Z"/>
                <path id="path8" fill="#000000" fill-rule="evenodd" stroke="none" d="M 171.599976 101.799988 C 171.599976 101.799988 171.599976 101.799988 171.599976 101.799988 C 146.099976 101.799988 144.599976 88.299988 144.099976 66.200012 C 144.099976 62.799988 144 59.200012 144 55.799988 C 143.900024 44.099976 143.799988 31.900024 146 20.400024 C 149.200012 8.299988 164 4.5 173.799988 2 C 187.900024 -1.099976 201.200012 3.599976 208.599976 14.099976 C 215.700012 24.200012 215.700012 37.599976 208.799988 49.400024 C 217.5 55.599976 221.200012 65.900024 218.200012 76.099976 C 214.5 88.5 200.299988 101.799988 171.599976 101.799988 Z M 182.200012 3.400024 C 179.599996 3.400024 176.966654 3.700012 174.299988 4.299988 C 165.099976 6.700012 151.200012 10.200012 148.400024 20.900024 C 146.200012 32.099976 146.299988 44.099976 146.400024 55.799988 C 146.400024 59.200012 146.5 62.799988 146.5 66.200012 C 146.900024 88 148.299988 99.400024 171.599976 99.400024 C 171.599976 99.400024 171.599976 99.400024 171.599976 99.400024 C 199 99.400024 212.400024 87 215.900024 75.400024 C 218.700012 65.900024 215 56.299988 206.599976 50.799988 C 206 50.5 205.900024 49.700012 206.200012 49.200012 C 213.299988 37.799988 213.400024 25.200012 206.599976 15.400024 C 201.200012 7.700012 192.200012 3.400024 182.200012 3.400024 Z"/>
            </g>
            <path id="path9" fill="#000000" fill-rule="evenodd" stroke="none" d="M 207.200012 51 C 207.00002 51 206.800008 50.933329 206.599976 50.799988 C 200 46.400024 193.799988 46 189.700012 45.700012 L 189.200012 45.599976 C 188.5 45.599976 188 45 188.099976 44.400024 C 188.099976 43.700012 188.700012 43.200012 189.299988 43.200012 L 189.900024 43.299988 C 194 43.599976 200.799988 44 207.900024 48.799988 C 208.5 49.200012 208.599976 49.900024 208.200012 50.5 C 208 50.799988 207.599976 51 207.200012 51 Z"/>
            <path id="path10" fill="#000000" fill-rule="evenodd" stroke="none" d="M 178.200012 34.299988 C 177.599976 34.299988 177.099976 33.799988 177 33.200012 C 176.900024 32.599976 177.400024 32 178 31.900024 C 180.700012 31.5 182.400024 28.900024 182.299988 26.599976 C 182.099976 24.599976 180.599976 23.400024 178 23.400024 C 177.299988 23.400024 176.799988 22.900024 176.799988 22.200012 C 176.799988 21.599976 177.299988 21 178 21 C 182.700012 21 184.5 23.799988 184.700012 26.5 C 184.900024 29.799988 182.5 33.700012 178.299988 34.200012 C 178.299988 34.266663 178.266663 34.299988 178.200012 34.299988 Z"/>
            <path id="path11" fill="#000000" fill-rule="evenodd" stroke="none" d="M 179.5 69.200012 C 178.799988 69.200012 178.299988 68.700012 178.299988 68 C 178.200012 67.400024 178.799988 66.799988 179.400024 66.799988 C 182.700012 66.599976 184.200012 64.099976 184.299988 61.799988 C 184.299988 59.799988 183.200012 57.400024 179.799988 57.099976 C 179.099976 57 178.700012 56.400024 178.700012 55.799988 C 178.799988 55.099976 179.400024 54.599976 180 54.700012 C 184.700012 55.099976 186.700012 58.599976 186.700012 61.900024 C 186.599976 65.299988 184.099976 68.900024 179.5 69.200012 C 179.5 69.200012 179.5 69.200012 179.5 69.200012 Z"/>
            <path id="path12" fill="#ffffff" fill-rule="evenodd" stroke="none" d="M 154.400024 22.299988 C 154 22.299988 153.666667 22.199992 153.400024 22 C 152.599976 21.5 152.400024 20.400024 152.900024 19.599976 C 155.400024 15.900024 159 13.200012 163.200012 11.900024 C 164.099976 11.599976 165.099976 12.099976 165.400024 13 C 165.700012 13.900024 165.200012 14.900024 164.299988 15.200012 C 160.799988 16.299988 157.799988 18.5 155.799988 21.5 C 155.5 22 154.900024 22.299988 154.400024 22.299988 Z"/>
        </g>
        <g id="E">
            <g id="g2">
                <g id="g3">
                    <path id="path13" fill="#f4beef" fill-rule="evenodd" stroke="none" d="M 148 64.299988 C 144.400024 59.200012 133.900024 62.200012 129.799988 65 C 148.700012 53.5 144.700012 39.599976 131.599976 40.799988 C 152.400024 30.200012 145.099976 12.5 132.599976 6.900024 C 123.299988 2.299988 104.100006 6.900024 95.600006 12.5 C 82.399994 21.299988 77.899994 29.200012 76.299988 40.099976 C 74.799988 50.099976 85.799988 60.700012 96.5 60.400024 C 83.399994 60.799988 76.200012 79 82.5 89 C 87 96.299988 96.600006 101.400024 105.100006 101.700012 C 119.400024 102.299988 127.200012 98.400024 134.700012 93.5 C 147.200012 85.200012 155.099976 74.099976 148 64.299988 Z"/>
                    <path id="path14" fill="#000000" fill-rule="evenodd" stroke="none" d="M 107.600006 103 C 106.733327 103 105.866659 102.966675 105 102.900024 C 95.899994 102.599976 86 97 81.5 89.599976 C 78 84.099976 78.200012 76.099976 81.799988 69.299988 C 83.899994 65.299988 86.899994 62.299988 90.299988 60.700012 C 86.5 59.5 82.899994 57.099976 80 53.900024 C 76.200012 49.700012 74.399994 44.5 75.100006 39.900024 C 76.899994 27.799988 82.5 19.799988 95 11.5 C 103.5 5.799988 123.400024 0.900024 133.200012 5.799988 C 140.599976 9.200012 145.799988 16.299988 145.900024 23.400024 C 146.099976 29.700012 142.5 35.299988 135.900024 39.700012 C 139.599976 40.400024 142.400024 42.5 143.5 45.700012 C 144.700012 49.5 143.5 55 137.5 60.700012 C 141.900024 59.900024 146.599976 60.299988 149 63.599976 C 151.5 67 152.400024 70.799988 151.700012 74.700012 C 150.5 81.299988 144.700012 88.299988 135.400024 94.5 C 128.799988 98.799988 121.299988 103 107.600006 103 Z M 96.5 59.200012 C 97.100006 59.200012 97.600006 59.700012 97.700012 60.299988 C 97.700012 61 97.200012 61.5 96.5 61.599976 C 91.399994 61.700012 86.799988 65 83.899994 70.400024 C 80.700012 76.400024 80.600006 83.700012 83.5 88.400024 C 87.600006 95.099976 96.700012 100.200012 105.100006 100.5 C 119.700012 101.099976 127.400024 96.799988 134.099976 92.5 C 142.799988 86.599976 148.200012 80.200012 149.299988 74.299988 C 149.900024 71 149.200012 67.900024 147.099976 65 C 144.200012 61 135.700012 63 131.299988 65.5 C 131.033346 65.699992 130.733358 65.866659 130.400024 66 C 129.799988 66.400024 129.099976 66.200012 128.700012 65.700012 C 128.400024 65.099976 128.5 64.400024 129.099976 64 C 129.366659 63.800008 129.666667 63.600016 130 63.400024 C 140.200012 56.900024 142.400024 50.299988 141.200012 46.5 C 140.099976 43.299988 136.5 41.5 131.700012 42 C 131.200012 42 130.599976 41.599976 130.5 41.099976 C 130.299988 40.5 130.599976 39.900024 131.099976 39.700012 C 141.5 34.400024 143.599976 28 143.5 23.5 C 143.400024 17.200012 138.799988 11 132.099976 8 C 123.200012 3.5 104.200012 8.299988 96.299988 13.5 C 82.600006 22.599976 79 30.5 77.5 40.200012 C 76.899994 44.200012 78.5 48.599976 81.799988 52.299988 C 85.700012 56.700012 91.299988 59.299988 96.399994 59.200012 C 96.399994 59.200012 96.399994 59.200012 96.399994 59.200012 C 96.399994 59.200012 96.433329 59.200012 96.5 59.200012 Z"/>
                </g>
                <path id="path15" fill="#000000" fill-rule="evenodd" stroke="none" d="M 112.299988 46.099976 C 109.033325 46.099976 105.833333 45.733317 102.700012 45 C 102.100006 44.900024 101.700012 44.200012 101.899994 43.599976 C 102 42.900024 102.600006 42.5 103.299988 42.700012 C 112.100006 44.700012 121.5 43.700012 131.200012 39.700012 C 131.799988 39.400024 132.5 39.700012 132.700012 40.299988 C 133 40.900024 132.700012 41.599976 132.099976 41.900024 C 125.299988 44.700012 118.700012 46.099976 112.299988 46.099976 Z"/>
                <path id="path16" fill="#000000" fill-rule="evenodd" stroke="none" d="M 110.100006 71.700012 C 109.5 71.700012 108.899994 71.099976 108.899994 70.5 C 108.899994 69.799988 109.5 69.299988 110.100006 69.299988 C 116.700012 69.299988 123.400024 67.400024 129.099976 64 C 129.700012 63.700012 130.400024 63.799988 130.799988 64.400024 C 131.099976 65 130.900024 65.700012 130.400024 66.099976 C 124.299988 69.700012 117.100006 71.700012 110.100006 71.700012 Z"/>
                <path id="path17" fill="#000000" fill-rule="evenodd" stroke="none" d="M 97 61.599976 C 95.400004 61.599976 93.733337 61.466654 92 61.200012 C 91.399994 61.099976 90.899994 60.5 91 59.900024 C 91.100006 59.200012 91.700012 58.700012 92.399994 58.799988 C 101.200012 60.099976 108.799988 57.200012 108.799988 57.200012 C 109.5 56.900024 110.200012 57.299988 110.399994 57.900024 C 110.600006 58.5 110.299988 59.200012 109.700012 59.400024 C 109.399994 59.5 104.100006 61.599976 97 61.599976 Z"/>
            </g>
            <path id="path18" fill="#ffffff" fill-rule="evenodd" stroke="none" d="M 88.799988 28.400024 C 88.400004 28.400024 88.033346 28.266683 87.700012 28 C 86.899994 27.400024 86.799988 26.299988 87.399994 25.5 C 89.299988 23 93.399994 19.299988 95.899994 18.099976 C 96.799988 17.700012 97.799988 18 98.200012 18.900024 C 98.600006 19.799988 98.299988 20.799988 97.399994 21.299988 C 95.600006 22.099976 92 25.299988 90.200012 27.700012 C 89.799988 28.099976 89.299988 28.400024 88.799988 28.400024 Z"/>
        </g>
        <g id="3">
            <g id="g4">
                <path id="path19" fill="#f4beef" fill-rule="evenodd" stroke="none" d="M 276.400024 47 C 300.5 18.700012 261.799988 -8.599976 233.5 4.900024 C 223.799988 8.900024 215.5 19.400024 215.200012 29.5 C 215.099976 35 218.799988 44 226.599976 45.799988 C 222.200012 47.700012 220.599976 58 224.299988 63.700012 C 214.400024 68.700012 213.5 85.400024 223.299988 93.400024 C 229.200012 99 244.799988 102.200012 252.700012 101.900024 C 293.099976 100.099976 300.299988 61.099976 276.400024 47 Z"/>
                <path id="path20" fill="#000000" fill-rule="evenodd" stroke="none" d="M 251.5 103.099976 C 243.099976 103.099976 228.400024 99.900024 222.400024 94.299988 C 217.299988 90.099976 214.5 83 215.299988 75.900024 C 215.900024 70.400024 218.599976 65.700012 222.700012 63.200012 C 220.599976 59.299988 220.700012 54.099976 221.799988 50.599976 C 222.299988 48.799988 223.099976 47.299988 224 46.299988 C 217.200012 43.299988 213.900024 35 214 29.5 C 214.400024 19.200012 222.5 8.099976 233 3.799988 C 250.599976 -4.599976 271.099976 2.599976 279.900024 14.099976 C 287.5 24 286.900024 35.799988 278.200012 46.700012 C 288.599976 53.5 293.400024 65.400024 290.400024 77.400024 C 287.5 89.200012 276 102.099976 252.700012 103.099976 C 252.366679 103.099976 251.966675 103.099976 251.5 103.099976 Z M 249.400024 2.5 C 244.299988 2.5 239 3.599976 234 6 C 224.400024 9.900024 216.700012 20.299988 216.400024 29.5 C 216.299988 34.700012 219.900024 43.099976 226.799988 44.700012 C 227.299988 44.799988 227.700012 45.200012 227.799988 45.700012 C 227.799988 46.200012 227.5 46.700012 227 46.900024 C 225.799988 47.5 224.700012 49 224.099976 51.299988 C 222.900024 55.200012 223.400024 60.099976 225.299988 63 C 225.5 63.299988 225.599976 63.599976 225.5 64 C 225.400024 64.299988 225.200012 64.599976 224.900024 64.700012 C 220.900024 66.700012 218.299988 70.900024 217.700012 76.200012 C 217 82.5 219.400024 88.700012 224 92.5 C 229.799988 97.900024 245.099976 101 252.599976 100.700012 C 274.599976 99.700012 285.400024 87.799988 288.099976 76.900024 C 291 65.400024 286.099976 54.099976 275.799988 48 C 275.5 47.799988 275.299988 47.5 275.200012 47.200012 C 275.200012 46.799988 275.200012 46.5 275.5 46.200012 C 284.200012 36 285.099976 24.799988 278 15.599976 C 272.299988 8.099976 261.200012 2.5 249.400024 2.5 Z"/>
            </g>
            <path id="path21" fill="#000000" fill-rule="evenodd" stroke="none" d="M 232.299988 47.599976 C 230.366679 47.599976 228.366679 47.399984 226.299988 47 C 225.700012 46.900024 225.299988 46.299988 225.400024 45.599976 C 225.5 45 226.099976 44.5 226.799988 44.700012 C 242.599976 47.700012 250.5 37.900024 252.700012 31.599976 C 252.900024 31 253.599976 30.700012 254.200012 30.900024 C 254.900024 31.099976 255.200012 31.799988 255 32.400024 C 252.200012 40.200012 244.200012 47.599976 232.299988 47.599976 Z"/>
            <path id="path22" fill="#000000" fill-rule="evenodd" stroke="none" d="M 240.599976 71.299988 C 239.666667 71.299988 238.700012 71.233317 237.700012 71.099976 C 231.5 70.5 226 67.900024 223.400024 64.400024 C 223 63.900024 223.099976 63.099976 223.599976 62.700012 C 224.099976 62.299988 224.900024 62.400024 225.299988 62.900024 C 227.5 65.900024 232.5 68.200012 238 68.700012 C 244.799988 69.400024 251.400024 67.400024 256.099976 63.299988 C 256.599976 62.799988 257.400024 62.900024 257.799988 63.299988 C 258.299988 63.799988 258.200012 64.599976 257.700012 65 C 253.200012 69.099976 247.099976 71.299988 240.599976 71.299988 Z"/>
            <path id="path23" fill="#000000" fill-rule="evenodd" stroke="none" d="M 265 54.5 C 264.533325 54.5 264.099996 54.466675 263.700012 54.400024 C 263.099976 54.299988 262.599976 53.700012 262.700012 53 C 262.799988 52.400024 263.400024 51.900024 264.099976 52 C 266.900024 52.400024 271.599976 50.799988 275.5 46.200012 C 275.900024 45.700012 276.700012 45.599976 277.200012 46.099976 C 277.700012 46.5 277.700012 47.200012 277.299988 47.700012 C 273.799988 51.900024 269 54.5 265 54.5 Z"/>
            <path id="path24" fill="#ffffff" fill-rule="evenodd" stroke="none" d="M 235.799988 12.900024 C 235.299988 12.900024 234.700012 12.599976 234.400024 12.099976 C 233.799988 11.299988 234 10.200012 234.900024 9.599976 C 235.700012 9.099976 235.900024 9 236.5 8.700012 C 236.599976 8.700012 236.799988 8.599976 237.299988 8.400024 C 238.099976 8 239.200012 8.400024 239.599976 9.299988 C 240 10.200012 239.599976 11.200012 238.700012 11.599976 C 238.200012 11.799988 237.900024 11.900024 237.700012 12 C 237.5 12.099976 237.5 12.099976 236.799988 12.599976 C 236.466654 12.800008 236.133321 12.900024 235.799988 12.900024 Z"/>
            <path id="path25" fill="#ffffff" fill-rule="evenodd" stroke="none" d="M 225.200012 23.099976 C 224.933329 23.099976 224.633321 22.99998 224.299988 22.799988 C 223.5 22.299988 223.200012 21.200012 223.700012 20.400024 C 225.5 17.5 227.799988 14.799988 230.5 12.599976 C 231.299988 12 232.400024 12.099976 233 12.900024 C 233.599976 13.599976 233.5 14.700012 232.700012 15.299988 C 230.299988 17.299988 228.299988 19.599976 226.700012 22.200012 C 226.400024 22.799988 225.799988 23.099976 225.200012 23.099976 Z"/>
        </g>
        <g id="D">
            <g id="g5">
                <path id="path26" fill="#f4beef" fill-rule="evenodd" stroke="none" d="M 403.900024 17.5 C 395.5 6.599976 381.599976 2.099976 367.799988 4.700012 C 358.700012 6.299988 348.599976 10.400024 343.599976 18.400024 C 337.900024 28 337.5 66.799988 339.099976 78.799988 C 340.200012 89.200012 346 101 357.700012 100.799988 C 372.299988 101 386.5 94.299988 396.599976 83.799988 C 413.400024 66.900024 419 37.099976 403.900024 17.5 Z"/>
                <path id="path27" fill="#000000" fill-rule="evenodd" stroke="none" d="M 358.200012 103 C 358.00002 103 357.833354 103 357.700012 103 C 345.700012 103.200012 339.099976 91.5 337.900024 79.900024 C 336.200012 67.700012 336.700012 28.700012 342.599976 18.799988 C 347 11.700012 356.099976 6.5 367.599976 4.5 C 382.099976 1.700012 396.400024 6.799988 404.900024 17.700012 C 404.900024 17.700012 404.900024 17.733337 404.900024 17.799988 C 421.099976 38.799988 413.599976 69.400024 397.400024 85.700012 C 387 96.599976 372.299988 103 358.200012 103 Z M 357.700012 100.599976 C 371.299988 100.799988 385.5 94.599976 395.700012 84 C 411.200012 68.400024 418.400024 39.299988 403 19.200012 C 395.099976 9 381.700012 4.299988 368 6.900024 C 362.900024 7.799988 350.299988 10.799988 344.700012 20 C 339.099976 29.299988 338.700012 68 340.299988 79.599976 C 341.400024 90.200012 347.099976 100.799988 357.700012 100.599976 Z"/>
            </g>
            <path id="path28" fill="#000000" fill-rule="evenodd" stroke="none" d="M 367.5 67.400024 C 367 67.400024 366.5 67.099976 366.400024 66.599976 C 366.200012 66 366.5 65.299988 367.099976 65.099976 C 375.799988 62.200012 379.799988 50.299988 378 41.5 C 377.5 38.799988 375.5 32.799988 369.400024 33.299988 C 368.799988 33.400024 368.200012 32.900024 368.099976 32.200012 C 368.099976 31.599976 368.599976 31 369.200012 30.900024 C 374.799988 30.400024 378.900024 34.200012 380.400024 41 C 382.400024 51 377.900024 64 367.900024 67.400024 C 367.766683 67.400024 367.633341 67.400024 367.5 67.400024 Z"/>
            <path id="path29" fill="#ffffff" fill-rule="evenodd" stroke="none" d="M 350.200012 23.200012 C 349.799988 23.200012 349.400024 23.099976 349.099976 22.799988 C 348.299988 22.099976 348.299988 21 348.900024 20.299988 C 351.700012 17.099976 355.299988 14.5 359.099976 12.799988 C 360 12.400024 361.099976 12.799988 361.5 13.700012 C 361.900024 14.599976 361.5 15.599976 360.599976 16 C 357.099976 17.599976 354 19.799988 351.5 22.599976 C 351.200012 23 350.700012 23.200012 350.200012 23.200012 Z"/>
        </g>
        <g id="E-copy">
            <g id="g6">
                <g id="g7">
                    <path id="path30" fill="#f4beef" fill-rule="evenodd" stroke="none" d="M 473 63.299988 C 469.400024 58.200012 458.900024 61.200012 454.799988 64 C 473.700012 52.5 469.700012 38.599976 456.599976 39.799988 C 477.400024 29.200012 470.099976 11.5 457.599976 5.900024 C 448.299988 1.299988 429.099976 5.900024 420.599976 11.5 C 407.400024 20.299988 402.900024 28.200012 401.299988 39.099976 C 399.799988 49.099976 410.799988 59.700012 421.5 59.400024 C 408.400024 59.799988 401.200012 78 407.5 88 C 412 95.299988 421.599976 100.400024 430.099976 100.700012 C 444.400024 101.299988 452.200012 97.400024 459.700012 92.5 C 472.200012 84.200012 480.099976 73.099976 473 63.299988 Z"/>
                    <path id="path31" fill="#000000" fill-rule="evenodd" stroke="none" d="M 432.599976 103 C 431.733317 103 430.866659 102.966675 430 102.900024 C 420.900024 102.599976 411 97 406.5 89.599976 C 403 84.099976 403.200012 76.099976 406.799988 69.299988 C 408.900024 65.299988 411.900024 62.299988 415.299988 60.700012 C 411.5 59.5 407.900024 57.099976 405 53.900024 C 401.200012 49.700012 399.400024 44.5 400.099976 39.900024 C 401.900024 27.799988 407.5 19.799988 420 11.5 C 428.5 5.799988 448.400024 0.900024 458.200012 5.799988 C 465.599976 9.200012 470.799988 16.299988 470.900024 23.400024 C 471.099976 29.700012 467.5 35.299988 460.900024 39.700012 C 464.599976 40.400024 467.400024 42.5 468.5 45.700012 C 469.700012 49.5 468.5 55 462.5 60.700012 C 466.900024 59.900024 471.599976 60.299988 474 63.599976 C 476.5 67 477.400024 70.799988 476.700012 74.700012 C 475.5 81.299988 469.700012 88.299988 460.400024 94.5 C 453.799988 98.799988 446.299988 103 432.599976 103 Z M 421.5 59.200012 C 422.099976 59.200012 422.599976 59.700012 422.700012 60.299988 C 422.700012 61 422.200012 61.5 421.5 61.599976 C 416.400024 61.700012 411.799988 65 408.900024 70.400024 C 405.700012 76.400024 405.599976 83.700012 408.5 88.400024 C 412.599976 95.099976 421.700012 100.200012 430.099976 100.5 C 444.700012 101.099976 452.400024 96.799988 459.099976 92.5 C 467.799988 86.599976 473.200012 80.200012 474.299988 74.299988 C 474.900024 71 474.200012 67.900024 472.099976 65 C 469.200012 61 460.700012 63 456.299988 65.5 C 456.033346 65.699992 455.733358 65.866659 455.400024 66 C 454.799988 66.400024 454.099976 66.200012 453.700012 65.700012 C 453.400024 65.099976 453.5 64.400024 454.099976 64 C 454.366659 63.800008 454.666667 63.600016 455 63.400024 C 465.200012 56.900024 467.400024 50.299988 466.200012 46.5 C 465.099976 43.299988 461.5 41.5 456.700012 42 C 456.200012 42 455.599976 41.599976 455.5 41.099976 C 455.299988 40.5 455.599976 39.900024 456.099976 39.700012 C 466.5 34.400024 468.599976 28 468.5 23.5 C 468.400024 17.200012 463.799988 11 457.099976 8 C 448.200012 3.5 429.200012 8.299988 421.299988 13.5 C 407.599976 22.599976 404 30.5 402.5 40.200012 C 401.900024 44.200012 403.5 48.599976 406.799988 52.299988 C 410.700012 56.700012 416.299988 59.299988 421.400024 59.200012 C 421.400024 59.200012 421.400024 59.200012 421.400024 59.200012 C 421.400024 59.200012 421.43335 59.200012 421.5 59.200012 Z"/>
                </g>
                <path id="path32" fill="#000000" fill-rule="evenodd" stroke="none" d="M 437.299988 46.099976 C 434.033346 46.099976 430.833354 45.733317 427.700012 45 C 427.099976 44.900024 426.700012 44.200012 426.900024 43.599976 C 427 42.900024 427.599976 42.5 428.299988 42.700012 C 437.099976 44.700012 446.5 43.700012 456.200012 39.700012 C 456.799988 39.400024 457.5 39.700012 457.700012 40.299988 C 458 40.900024 457.700012 41.599976 457.099976 41.900024 C 450.299988 44.700012 443.700012 46.099976 437.299988 46.099976 Z"/>
                <path id="path33" fill="#000000" fill-rule="evenodd" stroke="none" d="M 435.099976 71.700012 C 434.5 71.700012 433.900024 71.099976 433.900024 70.5 C 433.900024 69.799988 434.5 69.299988 435.099976 69.299988 C 441.700012 69.299988 448.400024 67.400024 454.099976 64 C 454.700012 63.700012 455.400024 63.799988 455.799988 64.400024 C 456.099976 65 455.900024 65.700012 455.400024 66.099976 C 449.299988 69.700012 442.099976 71.700012 435.099976 71.700012 Z"/>
                <path id="path34" fill="#000000" fill-rule="evenodd" stroke="none" d="M 422 61.599976 C 420.399984 61.599976 418.733317 61.466654 417 61.200012 C 416.400024 61.099976 415.900024 60.5 416 59.900024 C 416.099976 59.200012 416.700012 58.700012 417.400024 58.799988 C 426.200012 60.099976 433.799988 57.200012 433.799988 57.200012 C 434.5 56.900024 435.200012 57.299988 435.400024 57.900024 C 435.599976 58.5 435.299988 59.200012 434.700012 59.400024 C 434.400024 59.5 429.099976 61.599976 422 61.599976 Z"/>
            </g>
            <path id="path35" fill="#ffffff" fill-rule="evenodd" stroke="none" d="M 413.799988 27.400024 C 413.400004 27.400024 413.033346 27.266683 412.700012 27 C 411.900024 26.400024 411.799988 25.299988 412.400024 24.5 C 414.299988 22 418.400024 18.299988 420.900024 17.099976 C 421.799988 16.700012 422.799988 17 423.200012 17.900024 C 423.599976 18.799988 423.299988 19.799988 422.400024 20.299988 C 420.599976 21.099976 417 24.299988 415.200012 26.700012 C 414.799988 27.099976 414.299988 27.400024 413.799988 27.400024 Z"/>
        </g>
        <g id="V">
            <g id="g8">
                <path id="path36" fill="#f4beef" fill-rule="evenodd" stroke="none" d="M 537.900024 14.599976 C 531 0.099976 511.900024 1.400024 504.099976 16.299988 C 494.400024 -5 468.200012 3.299988 467.099976 23.099976 C 465.700012 37.799988 470.099976 52 473.799988 66.099976 C 477.700012 79.200012 485.5 101.299988 501.299988 101 C 520.700012 100.400024 526.099976 76.900024 531 61.900024 C 535.700012 47.200012 544.099976 29.900024 537.900024 14.599976 Z"/>
                <path id="path37" fill="#000000" fill-rule="evenodd" stroke="none" d="M 501 102.200012 C 483.200012 102.200012 475.299988 75.299988 472.599976 66.400024 C 472.199992 64.800008 471.800008 63.199992 471.400024 61.599976 C 468.099976 49.099976 464.700012 36.200012 465.900024 23 C 466.400024 13 473.5 4.700012 483 2.900024 C 489.799988 1.599976 498.700012 3.900024 504.200012 13.799988 C 508.5 7.099976 515.400024 3 522.799988 3.200012 C 529.900024 3.299988 535.799988 7.299988 539 14.099976 C 539 14.099976 539 14.099976 539 14.099976 C 544.299988 27.200012 539.299988 41.700012 534.799988 54.5 C 533.900024 57.200012 533 59.700012 532.200012 62.200012 C 531.733337 63.666687 531.233337 65.200012 530.700012 66.799988 C 526.099976 81.5 519.700012 101.700012 501.299988 102.200012 C 501.233337 102.200012 501.133341 102.200012 501 102.200012 Z M 486.700012 5 C 485.633321 5 484.533325 5.099996 483.400024 5.299988 C 475 6.900024 468.799988 14.200012 468.299988 23.099976 C 467.099976 36 470.5 48.700012 473.700012 61 C 474.099996 62.600016 474.533325 64.200012 475 65.799988 C 477.400024 74.200012 485 99.799988 501 99.799988 C 501.06665 99.799988 501.166646 99.799988 501.299988 99.799988 C 518 99.299988 523.799988 80.900024 528.400024 66.099976 C 528.93335 64.5 529.43335 62.966675 529.900024 61.5 C 530.700012 59 531.599976 56.400024 532.5 53.700012 C 536.900024 41.299988 541.799988 27.299988 536.799988 15.099976 C 534 9.200012 528.900024 5.700012 522.700012 5.599976 C 515.599976 5.5 508.900024 9.799988 505.200012 16.900024 C 505 17.299988 504.599976 17.5 504.099976 17.5 C 504.099976 17.5 504.099976 17.5 504.099976 17.5 C 503.599976 17.5 503.200012 17.299988 503 16.799988 C 499.5 9.200012 493.599976 5 486.700012 5 Z"/>
            </g>
            <path id="path38" fill="#000000" fill-rule="evenodd" stroke="none" d="M 498.900024 68.400024 C 498.299988 68.400024 497.799988 68 497.700012 67.400024 C 495 51.799988 496.900024 34.099976 503 16 C 503.200012 15.299988 503.900024 15 504.5 15.200012 C 505.099976 15.400024 505.5 16.099976 505.299988 16.700012 C 499.299988 34.400024 497.5 51.799988 500 67 C 500.099976 67.700012 499.700012 68.299988 499.099976 68.400024 C 499.033325 68.400024 498.966675 68.400024 498.900024 68.400024 Z"/>
            <path id="path39" fill="#ffffff" fill-rule="evenodd" stroke="none" d="M 474.299988 20.799988 C 474.099996 20.799988 473.900004 20.766663 473.700012 20.700012 C 472.799988 20.299988 472.299988 19.299988 472.700012 18.400024 C 474.599976 13.400024 479.200012 9.599976 484.400024 8.599976 C 485.400024 8.400024 486.299988 9.099976 486.5 10 C 486.599976 11 486 11.900024 485.099976 12.099976 C 481 12.799988 477.400024 15.799988 475.900024 19.700012 C 475.700012 20.400024 475 20.799988 474.299988 20.799988 Z"/>
            <path id="path40" fill="#ffffff" fill-rule="evenodd" stroke="none" d="M 511.5 19 C 511.099976 19 510.700012 18.799988 510.400024 18.599976 C 509.599976 18 509.5 16.900024 510.099976 16.099976 C 512.700012 12.799988 516.599976 10.599976 520.700012 9.900024 C 521.599976 9.700012 522.5 10.299988 522.700012 11.299988 C 522.900024 12.299988 522.200012 13.200012 521.299988 13.299988 C 518 13.900024 514.900024 15.700012 512.900024 18.299988 C 512.5 18.700012 512 19 511.5 19 Z"/>
        </g>
        <g id="R">
            <g id="g9">
                <g id="g10">
                    <path id="path41" fill="#f4beef" fill-rule="evenodd" stroke="none" d="M 599.5 35.700012 C 599.200012 7.900024 579 -3.400024 550.700012 5.200012 C 536.700012 9.400024 529.799988 13.799988 529.799988 31.799988 C 529.799988 39.299988 530.200012 65.799988 530.900024 81.900024 C 531.5 99 553.200012 107.599976 564.299988 93 C 571.700012 102.799988 588.099976 102 594.099976 91.599976 C 600.400024 81.299988 592.5 72.400024 586.799988 61.700012 C 598.099976 54.900024 599.5 44.099976 599.5 35.700012 Z"/>
                    <path id="path42" fill="#000000" fill-rule="evenodd" stroke="none" d="M 549.900024 101.599976 C 547.966675 101.599976 546 101.299988 544 100.700012 C 535.700012 98.099976 530 90.700012 529.700012 82 C 529 66 528.599976 39.299988 528.599976 31.799988 C 528.599976 13.599976 535.299988 8.599976 550.400024 4 C 565.700012 -0.599976 579.200012 0.5 588.200012 7.099976 C 596.200012 13 600.5 22.900024 600.700012 35.700012 C 600.700012 35.700012 600.700012 35.700012 600.700012 35.700012 C 600.700012 43.599976 599.400024 54.900024 588.400024 62.099976 C 589.200012 63.700012 590.099976 65.200012 591 66.700012 C 596 75.200012 600.700012 83.200012 595.099976 92.200012 C 592.200012 97.299988 586.599976 100.599976 580.099976 101 C 574 101.400024 568.200012 99.099976 564.299988 94.900024 C 560.5 99.299988 555.400024 101.599976 549.900024 101.599976 Z M 568 3.599976 C 562.799988 3.599976 557.099976 4.5 551.099976 6.299988 C 537.5 10.400024 531 14.299988 531 31.799988 C 531 39.299988 531.400024 65.900024 532.099976 81.900024 C 532.400024 89.599976 537.400024 96.099976 544.799988 98.400024 C 551.799988 100.599976 558.799988 98.299988 563.400024 92.299988 C 563.599976 92 563.900024 91.799988 564.299988 91.799988 C 564.299988 91.799988 564.299988 91.799988 564.299988 91.799988 C 564.700012 91.799988 565 92 565.299988 92.299988 C 568.599976 96.599976 574 99 579.900024 98.599976 C 585.599976 98.299988 590.5 95.400024 593.099976 91 C 597.900024 83.099976 593.700012 76.099976 588.900024 67.900024 C 587.900024 66.099976 586.799988 64.200012 585.700012 62.299988 C 585.400024 61.700012 585.599976 61 586.200012 60.700012 C 597 54.200012 598.299988 43.900024 598.299988 35.700012 C 598.099976 23.700012 594.200012 14.5 586.799988 9.099976 C 581.900024 5.400024 575.400024 3.599976 568 3.599976 Z"/>
                </g>
                <path id="path43" fill="#000000" fill-rule="evenodd" stroke="none" d="M 577.299988 66 C 576.599976 66 576.099976 65.5 576.099976 64.900024 C 576 64.200012 576.5 63.599976 577.200012 63.599976 C 580.599976 63.299988 585.799988 61.900024 590.900024 57.099976 C 591.299988 56.700012 592.099976 56.700012 592.599976 57.200012 C 593 57.700012 593 58.400024 592.5 58.900024 C 586.900024 64.099976 581.200012 65.599976 577.400024 66 C 577.333333 66 577.299988 66 577.299988 66 Z"/>
                <path id="path44" fill="#000000" fill-rule="evenodd" stroke="none" d="M 575.700012 43.099976 C 575.566671 43.099976 575.466675 43.099976 575.400024 43.099976 C 568.700012 41.400024 562.5 37.200012 558.599976 32 C 558.200012 31.5 558.400024 30.799988 558.900024 30.400024 C 559.400024 30 560.200012 30.099976 560.599976 30.599976 C 564.099976 35.400024 569.799988 39.200012 576 40.799988 C 576.599976 40.900024 577 41.599976 576.799988 42.200012 C 576.700012 42.799988 576.200012 43.099976 575.700012 43.099976 Z"/>
                <path id="path45" fill="#000000" fill-rule="evenodd" stroke="none" d="M 558.299988 47.200012 C 557.900024 47.200012 557.5 47 557.299988 46.599976 C 556.900024 46 557.099976 45.299988 557.700012 45 C 561.599976 42.799988 568.799988 37 571.099976 29.099976 C 571.299988 28.5 572 28.099976 572.599976 28.299988 C 573.299988 28.5 573.599976 29.200012 573.400024 29.799988 C 570.900024 38.400024 563.099976 44.700012 558.900024 47.099976 C 558.699992 47.166667 558.49998 47.200012 558.299988 47.200012 Z"/>
                <path id="path46" fill="#000000" fill-rule="evenodd" stroke="none" d="M 564.299988 94.200012 C 564.099996 94.200012 563.900004 94.166667 563.700012 94.099976 C 563.200012 93.700012 562.900024 93 563.299988 92.400024 C 566 87.5 566.299988 81.200012 564.200012 73.200012 C 564.099976 72.599976 564.400024 71.900024 565.099976 71.799988 C 565.700012 71.599976 566.400024 72 566.5 72.599976 C 568.799988 81.200012 568.400024 88 565.400024 93.599976 C 565.099976 94 564.700012 94.200012 564.299988 94.200012 Z"/>
                <path id="path47" fill="#000000" fill-rule="evenodd" stroke="none" d="M 564.700012 74.099976 C 563.099996 74.099976 561.533325 73.899984 560 73.5 C 559.299988 73.299988 559 72.700012 559.099976 72 C 559.299988 71.400024 560 71 560.599976 71.200012 C 563.700012 72 567.099976 71.900024 570.099976 70.799988 C 570.700012 70.599976 571.400024 70.900024 571.599976 71.5 C 571.799988 72.200012 571.5 72.799988 570.900024 73.099976 C 568.900024 73.799988 566.799988 74.099976 564.700012 74.099976 Z"/>
            </g>
            <path id="path48" fill="#ffffff" fill-rule="evenodd" stroke="none" d="M 542.099976 17.099976 C 541.5 17.099976 540.900024 16.799988 540.599976 16.099976 C 540.099976 15.299988 540.5 14.200012 541.400024 13.799988 C 544.700012 12.099976 547.099976 11.400024 550.900024 10.400024 C 551.900024 10.200012 552.799988 10.700012 553.099976 11.700012 C 553.299988 12.599976 552.799988 13.599976 551.799988 13.799988 C 548.200012 14.799988 546 15.400024 542.900024 17 C 542.633341 17.06665 542.366659 17.099976 542.099976 17.099976 Z"/>
        </g>
        <g id="E-copy-2">
            <g id="g11">
                <g id="g12">
                    <path id="path49" fill="#f4beef" fill-rule="evenodd" stroke="none" d="M 663 63.299988 C 659.400024 58.200012 648.900024 61.200012 644.800049 64 C 663.699951 52.5 659.699951 38.599976 646.599976 39.799988 C 667.400024 29.200012 660.099976 11.5 647.599976 5.900024 C 638.300049 1.299988 619.099976 5.900024 610.599976 11.5 C 597.400024 20.299988 592.900024 28.200012 591.299988 39.099976 C 589.799988 49.099976 600.799988 59.700012 611.5 59.400024 C 598.400024 59.799988 591.200012 78 597.5 88 C 602 95.299988 611.599976 100.400024 620.099976 100.700012 C 634.400024 101.299988 642.199951 97.400024 649.699951 92.5 C 662.199951 84.200012 670.099976 73.099976 663 63.299988 Z"/>
                    <path id="path50" fill="#000000" fill-rule="evenodd" stroke="none" d="M 622.599976 103 C 621.733317 103 620.866659 102.966675 620 102.900024 C 610.900024 102.599976 601 97 596.5 89.599976 C 593 84.099976 593.200012 76.099976 596.799988 69.299988 C 598.900024 65.299988 601.900024 62.299988 605.299988 60.700012 C 601.5 59.5 597.900024 57.099976 595 53.900024 C 591.200012 49.700012 589.400024 44.5 590.099976 39.900024 C 591.900024 27.799988 597.5 19.799988 610 11.5 C 618.5 5.799988 638.400024 0.900024 648.199951 5.799988 C 655.599976 9.200012 660.800049 16.299988 660.900024 23.400024 C 661.099976 29.700012 657.5 35.299988 650.900024 39.700012 C 654.599976 40.400024 657.400024 42.5 658.5 45.700012 C 659.699951 49.5 658.5 55 652.5 60.700012 C 656.900024 59.900024 661.599976 60.299988 664 63.599976 C 666.5 67 667.400024 70.799988 666.699951 74.700012 C 665.5 81.299988 659.699951 88.299988 650.400024 94.5 C 643.800049 98.799988 636.300049 103 622.599976 103 Z M 611.5 59.200012 C 612.099976 59.200012 612.599976 59.700012 612.700012 60.299988 C 612.700012 61 612.200012 61.5 611.5 61.599976 C 606.400024 61.700012 601.799988 65 598.900024 70.400024 C 595.700012 76.400024 595.599976 83.700012 598.5 88.400024 C 602.599976 95.099976 611.700012 100.200012 620.099976 100.5 C 634.699951 101.099976 642.400024 96.799988 649.099976 92.5 C 657.800049 86.599976 663.199951 80.200012 664.300049 74.299988 C 664.900024 71 664.199951 67.900024 662.099976 65 C 659.199951 61 650.699951 63 646.300049 65.5 C 646.033366 65.699992 645.733358 65.866659 645.400024 66 C 644.800049 66.400024 644.099976 66.200012 643.699951 65.700012 C 643.400024 65.099976 643.5 64.400024 644.099976 64 C 644.366659 63.800008 644.666667 63.600016 645 63.400024 C 655.199951 56.900024 657.400024 50.299988 656.199951 46.5 C 655.099976 43.299988 651.5 41.5 646.699951 42 C 646.199951 42 645.599976 41.599976 645.5 41.099976 C 645.300049 40.5 645.599976 39.900024 646.099976 39.700012 C 656.5 34.400024 658.599976 28 658.5 23.5 C 658.400024 17.200012 653.800049 11 647.099976 8 C 638.199951 3.5 619.200012 8.299988 611.299988 13.5 C 597.599976 22.599976 594 30.5 592.5 40.200012 C 591.900024 44.200012 593.5 48.599976 596.799988 52.299988 C 600.700012 56.700012 606.299988 59.299988 611.400024 59.200012 C 611.400024 59.200012 611.400024 59.200012 611.400024 59.200012 C 611.400024 59.200012 611.43335 59.200012 611.5 59.200012 Z"/>
                </g>
                <path id="path51" fill="#000000" fill-rule="evenodd" stroke="none" d="M 627.299988 46.099976 C 624.033346 46.099976 620.833354 45.733317 617.700012 45 C 617.099976 44.900024 616.700012 44.200012 616.900024 43.599976 C 617 42.900024 617.599976 42.5 618.299988 42.700012 C 627.099976 44.700012 636.5 43.700012 646.199951 39.700012 C 646.800049 39.400024 647.5 39.700012 647.699951 40.299988 C 648 40.900024 647.699951 41.599976 647.099976 41.900024 C 640.300049 44.700012 633.699951 46.099976 627.299988 46.099976 Z"/>
                <path id="path52" fill="#000000" fill-rule="evenodd" stroke="none" d="M 625.099976 71.700012 C 624.5 71.700012 623.900024 71.099976 623.900024 70.5 C 623.900024 69.799988 624.5 69.299988 625.099976 69.299988 C 631.699951 69.299988 638.400024 67.400024 644.099976 64 C 644.699951 63.700012 645.400024 63.799988 645.800049 64.400024 C 646.099976 65 645.900024 65.700012 645.400024 66.099976 C 639.300049 69.700012 632.099976 71.700012 625.099976 71.700012 Z"/>
                <path id="path53" fill="#000000" fill-rule="evenodd" stroke="none" d="M 612 61.599976 C 610.399984 61.599976 608.733317 61.466654 607 61.200012 C 606.400024 61.099976 605.900024 60.5 606 59.900024 C 606.099976 59.200012 606.700012 58.700012 607.400024 58.799988 C 616.200012 60.099976 623.799988 57.200012 623.799988 57.200012 C 624.5 56.900024 625.200012 57.299988 625.400024 57.900024 C 625.599976 58.5 625.299988 59.200012 624.700012 59.400024 C 624.400024 59.5 619.099976 61.599976 612 61.599976 Z"/>
            </g>
            <path id="path54" fill="#ffffff" fill-rule="evenodd" stroke="none" d="M 603.799988 27.400024 C 603.400004 27.400024 603.033346 27.266683 602.700012 27 C 601.900024 26.400024 601.799988 25.299988 602.400024 24.5 C 604.299988 22 608.400024 18.299988 610.900024 17.099976 C 611.799988 16.700012 612.799988 17 613.200012 17.900024 C 613.599976 18.799988 613.299988 19.799988 612.400024 20.299988 C 610.599976 21.099976 607 24.299988 605.200012 26.700012 C 604.799988 27.099976 604.299988 27.400024 603.799988 27.400024 Z"/>
        </g>
        <g id="L">
            <g id="g13">
                <path id="path55" fill="#f4beef" fill-rule="evenodd" stroke="none" d="M 720.400024 56.799988 C 715.099976 54.200012 708.800049 54.200012 702.900024 54.799988 C 702.900024 39.900024 706.5 20 695.199951 8.200012 C 687.300049 0.400024 673.5 2.299988 667.599976 11.799988 C 661 23.200012 660.800049 38.5 659.900024 51.599976 C 659.400024 61.700012 660.300049 71.799988 662 81.900024 C 664.699951 107.099976 690.199951 102.900024 708 96.799988 C 714.400024 94.599976 720.699951 91.400024 725.199951 86.599976 C 733.900024 77.799988 731.699951 61.900024 720.400024 56.799988 Z"/>
                <path id="path56" fill="#000000" fill-rule="evenodd" stroke="none" d="M 684.5 102.700012 C 678.633301 102.700012 673.799967 101.466675 670 99 C 664.699951 95.700012 661.599976 89.900024 660.800049 82 C 658.900024 71.200012 658.199951 61.200012 658.699951 51.5 C 658.766683 49.899984 658.866699 48.299988 659 46.700012 C 659.800049 34.799988 660.599976 21.400024 666.599976 11.200012 C 669.699951 6.200012 674.900024 3 680.900024 2.299988 C 686.599976 1.599976 692.099976 3.5 696 7.400024 C 705.5 17.200012 704.900024 32.400024 704.400024 45.799988 C 704.199951 48.5 704.099976 51 704.099976 53.5 C 708.900024 53.099976 715.400024 53 720.900024 55.700012 C 726.400024 58.200012 730.199951 63.200012 731.400024 69.599976 C 732.599976 76.200012 730.599976 82.900024 726 87.5 C 722 91.799988 716 95.400024 708.400024 97.900024 C 699.133341 101.100016 691.166667 102.700012 684.5 102.700012 Z M 683.199951 4.599976 C 682.533285 4.599976 681.833293 4.633321 681.099976 4.700012 C 675.900024 5.299988 671.400024 8.099976 668.699951 12.400024 C 663 22.099976 662.099976 35.299988 661.400024 46.799988 C 661.266642 48.466654 661.166626 50.099996 661.099976 51.700012 C 660.599976 61.099976 661.300049 71 663.199951 81.700012 C 663.900024 88.900024 666.699951 94 671.300049 97 C 678.699951 101.700012 691.199951 101.200012 707.599976 95.700012 C 714.900024 93.200012 720.5 89.900024 724.300049 85.799988 C 728.300049 81.700012 730.099976 75.900024 729 70 C 728 64.5 724.699951 60 719.900024 57.900024 C 719.833374 57.833333 719.800049 57.799988 719.800049 57.799988 C 714.400024 55.200012 707.599976 55.5 703 56 C 702.699951 56 702.400024 55.900024 702.099976 55.700012 C 701.900024 55.5 701.699951 55.200012 701.699951 54.799988 C 701.699951 51.900024 701.800049 48.900024 702 45.700012 C 702.5 32.799988 703.099976 18.200012 694.300049 9 C 691.400024 6.099976 687.400024 4.599976 683.199951 4.599976 Z"/>
            </g>
            <path id="path57" fill="#000000" fill-rule="evenodd" stroke="none" d="M 678.900024 76.700012 C 678.300049 76.700012 677.699951 76.200012 677.699951 75.5 C 677.699951 67.799988 689.199951 54.599976 702.800049 53.599976 C 703.5 53.599976 704.099976 54.099976 704.099976 54.700012 C 704.199951 55.400024 703.699951 56 703 56 C 690.5 57 680.099976 69.5 680.099976 75.5 C 680.099976 76.200012 679.599976 76.700012 678.900024 76.700012 Z"/>
            <path id="path58" fill="#ffffff" fill-rule="evenodd" stroke="none" d="M 672.099976 18.700012 C 671.833293 18.700012 671.599976 18.633341 671.400024 18.5 C 670.5 18.099976 670.099976 17.099976 670.5 16.200012 C 672.5 12 676.400024 8.900024 680.800049 7.700012 C 681.699951 7.5 682.699951 8 682.900024 9 C 683.199951 9.900024 682.599976 10.900024 681.699951 11.099976 C 678.199951 12 675.199951 14.5 673.699951 17.700012 C 673.400024 18.299988 672.800049 18.700012 672.099976 18.700012 Z"/>
        </g>
    </g>
</svg>
